# xmcd
#
# Track frame offsets: 
#        150
#        12275
#        22462
#        35885
#        47615
#        59187
#        72137
#        86012
#        99650
#        113725
#        127337
#        139125
#        151925
#        164627
#        175875
#        188275
#
# Disc length: 2675 seconds
#
# Revision: 0
# Processed by: cddbd v1.5.2PL0 Copyright (c) Steve Scherf et al.
# Submitted via: ExactAudioCopy v0.95b4
#
DISCID=e90a7110
DTITLE=Kurt Dehn - Im größten Fass der Welt
DYEAR=1900
DGENRE=Volksmusik
TTITLE0=Im größten Fass der Welt
TTITLE1=Immer noch ein Schluck
TTITLE2=Saumagenlied
TTITLE3=Grumbeersupp un Quetschekuche
TTITLE4=Im Himmel is känn Worschdmarkt mehr
TTITLE5=En echde Soppe Woi
TTITLE6=Kreuzfidel
TTITLE7=Pälzer Urlaubstraum
TTITLE8=Ja so en gude Palzwoi
TTITLE9='S is Basiert
TTITLE10=Jägerwalzer
TTITLE11=Tri Tra Tröppelche
TTITLE12=Gehschde Weg
TTITLE13=Im Winzerkeller
TTITLE14=Jetzt trink mer blos noch äner
TTITLE15=Blos Ämol
EXTD=
EXTT0=
EXTT1=
EXTT2=
EXTT3=
EXTT4=
EXTT5=
EXTT6=
EXTT7=
EXTT8=
EXTT9=
EXTT10=
EXTT11=
EXTT12=
EXTT13=
EXTT14=
EXTT15=
PLAYORDER=
